<?xml version="1.0" encoding="UTF-8" standalone="no"?>
<!DOCTYPE svg PUBLIC "-//W3C//DTD SVG 1.1//EN"
 "http://www.w3.org/Graphics/SVG/1.1/DTD/svg11.dtd">
<!-- Generated by graphviz version 2.38.0 (20140413.2041)
 -->
<!-- Title: %3 Pages: 1 -->
<svg width="41196pt" height="12976pt"
 viewBox="0.00 0.00 41196.18 12975.52" xmlns="http://www.w3.org/2000/svg" xmlns:xlink="http://www.w3.org/1999/xlink">
<g id="graph0" class="graph" transform="scale(1 1) rotate(0) translate(4 12971.5)">
<title>%3</title>
<polygon fill="white" stroke="none" points="-4,4 -4,-12971.5 41192.2,-12971.5 41192.2,4 -4,4"/>
<!-- Analyze Defect_Inform User -->
<g id="node1" class="node"><title>Analyze Defect_Inform User</title>
<ellipse fill="lightgrey" stroke="black" stroke-width="10" cx="8263.18" cy="-8192.18" rx="506.077" ry="506.077"/>
<text text-anchor="middle" x="8263.18" y="-8177.18" font-family="Times,serif" font-size="60.00">Analyze Defect_Inform User</text>
</g>
<!-- Inform User_Repair (Simple) -->
<g id="node2" class="node"><title>Inform User_Repair (Simple)</title>
<ellipse fill="lightgrey" stroke="black" stroke-width="10" cx="11005.2" cy="-8192.18" rx="513.219" ry="513.219"/>
<text text-anchor="middle" x="11005.2" y="-8177.18" font-family="Times,serif" font-size="60.00">Inform User_Repair (Simple)</text>
</g>
<!-- Analyze Defect_Inform User&#45;&gt;Inform User_Repair (Simple) -->
<g id="edge1" class="edge"><title>Analyze Defect_Inform User&#45;&gt;Inform User_Repair (Simple)</title>
<path fill="none" stroke="black" stroke-width="15" d="M8769.53,-8192.18C9256.21,-8192.18 9989.1,-8192.18 10481.5,-8192.18"/>
<polygon fill="black" stroke="black" stroke-width="15" points="10481.6,-8205.31 10491.6,-8192.18 10481.6,-8179.06 10481.6,-8205.31"/>
<text text-anchor="middle" x="9634.18" y="-8195.98" font-family="Times,serif" font-size="14.00">252</text>
</g>
<!-- Inform User_Repair (Complex) -->
<g id="node3" class="node"><title>Inform User_Repair (Complex)</title>
<ellipse fill="lightgrey" stroke="black" stroke-width="10" cx="12375.2" cy="-11310.2" rx="548.93" ry="548.93"/>
<text text-anchor="middle" x="12375.2" y="-11295.2" font-family="Times,serif" font-size="60.00">Inform User_Repair (Complex)</text>
</g>
<!-- Analyze Defect_Inform User&#45;&gt;Inform User_Repair (Complex) -->
<g id="edge2" class="edge"><title>Analyze Defect_Inform User&#45;&gt;Inform User_Repair (Complex)</title>
<path fill="none" stroke="black" stroke-width="15" d="M8667.16,-8497.9C9439.9,-9084.12 11124.6,-10362.2 11929.2,-10972.6"/>
<polygon fill="black" stroke="black" stroke-width="15" points="11921.5,-10983.2 11937.4,-10978.8 11937.4,-10962.3 11921.5,-10983.2"/>
<text text-anchor="middle" x="9634.18" y="-9229.98" font-family="Times,serif" font-size="14.00">368</text>
</g>
<!-- Repair (Simple)_Test Repair -->
<g id="node9" class="node"><title>Repair (Simple)_Test Repair</title>
<ellipse fill="lightgrey" stroke="black" stroke-width="10" cx="13746.2" cy="-6866.18" rx="502.092" ry="502.092"/>
<text text-anchor="middle" x="13746.2" y="-6851.18" font-family="Times,serif" font-size="60.00">Repair (Simple)_Test Repair</text>
</g>
<!-- Inform User_Repair (Simple)&#45;&gt;Repair (Simple)_Test Repair -->
<g id="edge11" class="edge"><title>Inform User_Repair (Simple)&#45;&gt;Repair (Simple)_Test Repair</title>
<path fill="none" stroke="black" stroke-width="15" d="M11467.7,-7968.74C11973.4,-7723.96 12779.5,-7333.67 13284.7,-7089.1"/>
<polygon fill="black" stroke="black" stroke-width="15" points="13290.7,-7100.78 13294,-7084.61 13279.3,-7077.15 13290.7,-7100.78"/>
<text text-anchor="middle" x="12375.2" y="-7767.98" font-family="Times,serif" font-size="14.00">256</text>
</g>
<!-- Repair (Complex)_Test Repair -->
<g id="node6" class="node"><title>Repair (Complex)_Test Repair</title>
<ellipse fill="lightgrey" stroke="black" stroke-width="10" cx="21970.2" cy="-6675.18" rx="537.302" ry="537.302"/>
<text text-anchor="middle" x="21970.2" y="-6660.18" font-family="Times,serif" font-size="60.00">Repair (Complex)_Test Repair</text>
</g>
<!-- Inform User_Repair (Complex)&#45;&gt;Repair (Complex)_Test Repair -->
<g id="edge23" class="edge"><title>Inform User_Repair (Complex)&#45;&gt;Repair (Complex)_Test Repair</title>
<path fill="none" stroke="black" stroke-width="15" d="M12914,-11415.5C14222.7,-11640.9 17627.3,-12038.1 19833.5,-10580.2 21034.6,-9786.41 21618.7,-8079.49 21847.6,-7209.14"/>
<polygon fill="black" stroke="black" stroke-width="15" points="21860.4,-7212.26 21850.2,-7199.26 21835,-7205.6 21860.4,-7212.26"/>
<text text-anchor="middle" x="16487.2" y="-11631" font-family="Times,serif" font-size="14.00">368</text>
</g>
<!-- Restart Repair_Repair (Complex) -->
<g id="node4" class="node"><title>Restart Repair_Repair (Complex)</title>
<ellipse fill="lightgrey" stroke="black" stroke-width="10" cx="19228.2" cy="-6204.18" rx="584.14" ry="584.14"/>
<text text-anchor="middle" x="19228.2" y="-6189.18" font-family="Times,serif" font-size="60.00">Restart Repair_Repair (Complex)</text>
</g>
<!-- Repair (Complex)_Inform User -->
<g id="node5" class="node"><title>Repair (Complex)_Inform User</title>
<ellipse fill="lightgrey" stroke="black" stroke-width="10" cx="21970.2" cy="-3225.18" rx="548.93" ry="548.93"/>
<text text-anchor="middle" x="21970.2" y="-3210.18" font-family="Times,serif" font-size="60.00">Repair (Complex)_Inform User</text>
</g>
<!-- Restart Repair_Repair (Complex)&#45;&gt;Repair (Complex)_Inform User -->
<g id="edge3" class="edge"><title>Restart Repair_Repair (Complex)&#45;&gt;Repair (Complex)_Inform User</title>
<path fill="none" stroke="black" stroke-width="15" d="M19624.3,-5774.59C20150.3,-5202.7 21074.2,-4198.26 21591.3,-3636.02"/>
<polygon fill="black" stroke="black" stroke-width="15" points="21601,-3644.84 21598.1,-3628.6 21581.7,-3627.07 21601,-3644.84"/>
<text text-anchor="middle" x="20599.2" y="-4718.98" font-family="Times,serif" font-size="14.00">96</text>
</g>
<!-- Restart Repair_Repair (Complex)&#45;&gt;Repair (Complex)_Test Repair -->
<g id="edge4" class="edge"><title>Restart Repair_Repair (Complex)&#45;&gt;Repair (Complex)_Test Repair</title>
<path fill="none" stroke="black" stroke-width="15" d="M19804,-6302.99C20283.3,-6385.39 20961.4,-6501.94 21430.4,-6582.57"/>
<polygon fill="black" stroke="black" stroke-width="15" points="21428.3,-6595.53 21440.4,-6584.28 21432.8,-6569.66 21428.3,-6595.53"/>
<text text-anchor="middle" x="20599.2" y="-6443.98" font-family="Times,serif" font-size="14.00">324</text>
</g>
<!-- Inform User_Test Repair -->
<g id="node11" class="node"><title>Inform User_Test Repair</title>
<ellipse fill="lightgrey" stroke="black" stroke-width="10" cx="35676.2" cy="-4001.18" rx="438.312" ry="438.312"/>
<text text-anchor="middle" x="35676.2" y="-3986.18" font-family="Times,serif" font-size="60.00">Inform User_Test Repair</text>
</g>
<!-- Repair (Complex)_Inform User&#45;&gt;Inform User_Test Repair -->
<g id="edge27" class="edge"><title>Repair (Complex)_Inform User&#45;&gt;Inform User_Test Repair</title>
<path fill="none" stroke="black" stroke-width="15" d="M22467.2,-3458.22C23006.7,-3689.96 23900.6,-4011.18 24710.2,-4011.18 24710.2,-4011.18 24710.2,-4011.18 32936.2,-4011.18 33743.6,-4011.18 34684.8,-4006.78 35227.2,-4003.82"/>
<polygon fill="black" stroke="black" stroke-width="15" points="35227.6,-4016.94 35237.6,-4003.76 35227.5,-3990.69 35227.6,-4016.94"/>
<text text-anchor="middle" x="28823.2" y="-4014.98" font-family="Times,serif" font-size="14.00">1252</text>
</g>
<!-- Test Repair_Archive Repair -->
<g id="node12" class="node"><title>Test Repair_Archive Repair</title>
<ellipse fill="lightgrey" stroke="black" stroke-width="10" cx="38417.2" cy="-6790.18" rx="490.05" ry="490.05"/>
<text text-anchor="middle" x="38417.2" y="-6775.18" font-family="Times,serif" font-size="60.00">Test Repair_Archive Repair</text>
</g>
<!-- Repair (Complex)_Test Repair&#45;&gt;Test Repair_Archive Repair -->
<g id="edge29" class="edge"><title>Repair (Complex)_Test Repair&#45;&gt;Test Repair_Archive Repair</title>
<path fill="none" stroke="black" stroke-width="15" d="M22507.4,-6693.25C23059.5,-6710.27 23944.9,-6733.18 24710.2,-6733.18 24710.2,-6733.18 24710.2,-6733.18 35677.2,-6733.18 36460,-6733.18 37368.3,-6756.74 37917.3,-6773.57"/>
<polygon fill="black" stroke="black" stroke-width="15" points="37916.9,-6786.69 37927.3,-6773.88 37917.8,-6760.45 37916.9,-6786.69"/>
<text text-anchor="middle" x="30194.2" y="-6736.98" font-family="Times,serif" font-size="14.00">548</text>
</g>
<!-- Test Repair_Restart Repair -->
<g id="node13" class="node"><title>Test Repair_Restart Repair</title>
<ellipse fill="lightgrey" stroke="black" stroke-width="10" cx="16487.2" cy="-6866.18" rx="473.523" ry="473.523"/>
<text text-anchor="middle" x="16487.2" y="-6851.18" font-family="Times,serif" font-size="60.00">Test Repair_Restart Repair</text>
</g>
<!-- Repair (Complex)_Test Repair&#45;&gt;Test Repair_Restart Repair -->
<g id="edge30" class="edge"><title>Repair (Complex)_Test Repair&#45;&gt;Test Repair_Restart Repair</title>
<path fill="none" stroke="black" stroke-width="15" d="M21572.2,-7036.96C21168.5,-7378.32 20508,-7866.76 19833.5,-8067.18 18987.2,-8318.61 18672.8,-8379.72 17847.2,-8067.18 17415.9,-7903.93 17033.3,-7534.41 16784.9,-7248.05"/>
<polygon fill="black" stroke="black" stroke-width="15" points="16794.7,-7239.42 16778.3,-7240.45 16774.9,-7256.61 16794.7,-7239.42"/>
<text text-anchor="middle" x="19228.2" y="-8283.98" font-family="Times,serif" font-size="14.00">140</text>
</g>
<!-- END -->
<g id="node14" class="node"><title>END</title>
<ellipse fill="none" stroke="black" cx="41159.2" cy="-5225.18" rx="29.4969" ry="18"/>
<text text-anchor="middle" x="41159.2" y="-5221.48" font-family="Times,serif" font-size="14.00">END</text>
</g>
<!-- Repair (Complex)_Test Repair&#45;&gt;END -->
<g id="edge31" class="edge"><title>Repair (Complex)_Test Repair&#45;&gt;END</title>
<path fill="none" stroke="black" stroke-width="15" d="M22391.3,-6341.11C22906.4,-5966.03 23820.8,-5409.18 24710.2,-5409.18 24710.2,-5409.18 24710.2,-5409.18 34307.2,-5409.18 37174.6,-5409.18 40714.5,-5246.13 41119.8,-5227.01"/>
<polygon fill="black" stroke="black" stroke-width="15" points="41120.5,-5240.11 41129.9,-5226.53 41119.3,-5213.89 41120.5,-5240.11"/>
<text text-anchor="middle" x="31564.2" y="-5412.98" font-family="Times,serif" font-size="14.00">44</text>
</g>
<!-- Test Repair_Inform User -->
<g id="node18" class="node"><title>Test Repair_Inform User</title>
<ellipse fill="lightgrey" stroke="black" stroke-width="10" cx="24711.2" cy="-8582.18" rx="438.312" ry="438.312"/>
<text text-anchor="middle" x="24711.2" y="-8567.18" font-family="Times,serif" font-size="60.00">Test Repair_Inform User</text>
</g>
<!-- Repair (Complex)_Test Repair&#45;&gt;Test Repair_Inform User -->
<g id="edge28" class="edge"><title>Repair (Complex)_Test Repair&#45;&gt;Test Repair_Inform User</title>
<path fill="none" stroke="black" stroke-width="15" d="M22411.6,-6981.84C22947.4,-7354.87 23842.1,-7977.82 24342.6,-8326.27"/>
<polygon fill="black" stroke="black" stroke-width="15" points="24335.4,-8337.21 24351.1,-8332.15 24350.4,-8315.66 24335.4,-8337.21"/>
<text text-anchor="middle" x="23340.2" y="-7632.98" font-family="Times,serif" font-size="14.00">908</text>
</g>
<!-- Restart Repair_Inform User -->
<g id="node7" class="node"><title>Restart Repair_Inform User</title>
<ellipse fill="lightgrey" stroke="black" stroke-width="10" cx="19228.2" cy="-10086.2" rx="485.151" ry="485.151"/>
<text text-anchor="middle" x="19228.2" y="-10071.2" font-family="Times,serif" font-size="60.00">Restart Repair_Inform User</text>
</g>
<!-- Restart Repair_Inform User&#45;&gt;Inform User_Repair (Simple) -->
<g id="edge5" class="edge"><title>Restart Repair_Inform User&#45;&gt;Inform User_Repair (Simple)</title>
<path fill="none" stroke="black" stroke-width="15" d="M18755.3,-9977.46C17317.9,-9646.31 13001.7,-8651.91 11515.5,-8309.53"/>
<polygon fill="black" stroke="black" stroke-width="15" points="11518.5,-8296.73 11505.8,-8307.28 11512.6,-8322.31 11518.5,-8296.73"/>
<text text-anchor="middle" x="15117.2" y="-9142.98" font-family="Times,serif" font-size="14.00">4</text>
</g>
<!-- Restart Repair_Repair (Simple) -->
<g id="node8" class="node"><title>Restart Repair_Repair (Simple)</title>
<ellipse fill="lightgrey" stroke="black" stroke-width="10" cx="30194.2" cy="-2267.18" rx="548.93" ry="548.93"/>
<text text-anchor="middle" x="30194.2" y="-2252.18" font-family="Times,serif" font-size="60.00">Restart Repair_Repair (Simple)</text>
</g>
<!-- Restart Repair_Repair (Simple)&#45;&gt;Repair (Simple)_Test Repair -->
<g id="edge6" class="edge"><title>Restart Repair_Repair (Simple)&#45;&gt;Repair (Simple)_Test Repair</title>
<path fill="none" stroke="black" stroke-width="15" d="M30006.5,-1751.4C29867,-1441.67 29644.9,-1067.82 29325.2,-856.182 28805,-511.801 28559.2,-695.047 27937.3,-646.182 24679.4,-390.233 23829,-310.541 20584.7,-702.182 19711.6,-807.575 19392.2,-534.167 18622.9,-960.182 16244.1,-2277.46 14554.3,-5259.27 13970.9,-6405.42"/>
<polygon fill="black" stroke="black" stroke-width="15" points="13959,-6399.77 13966.2,-6414.64 13982.4,-6411.68 13959,-6399.77"/>
<text text-anchor="middle" x="21970.2" y="-609.982" font-family="Times,serif" font-size="14.00">1004</text>
</g>
<!-- Repair (Simple)_Inform User -->
<g id="node10" class="node"><title>Repair (Simple)_Inform User</title>
<ellipse fill="lightgrey" stroke="black" stroke-width="10" cx="32935.2" cy="-2267.18" rx="513.219" ry="513.219"/>
<text text-anchor="middle" x="32935.2" y="-2252.18" font-family="Times,serif" font-size="60.00">Repair (Simple)_Inform User</text>
</g>
<!-- Restart Repair_Repair (Simple)&#45;&gt;Repair (Simple)_Inform User -->
<g id="edge7" class="edge"><title>Restart Repair_Repair (Simple)&#45;&gt;Repair (Simple)_Inform User</title>
<path fill="none" stroke="black" stroke-width="15" d="M30743.3,-2267.18C31229.1,-2267.18 31933.6,-2267.18 32411.5,-2267.18"/>
<polygon fill="black" stroke="black" stroke-width="15" points="32411.7,-2280.31 32421.7,-2267.18 32411.7,-2254.06 32411.7,-2280.31"/>
<text text-anchor="middle" x="31564.2" y="-2270.98" font-family="Times,serif" font-size="14.00">196</text>
</g>
<!-- Repair (Simple)_Test Repair&#45;&gt;Test Repair_Archive Repair -->
<g id="edge16" class="edge"><title>Repair (Simple)_Test Repair&#45;&gt;Test Repair_Archive Repair</title>
<path fill="none" stroke="black" stroke-width="15" d="M14103.5,-7218.99C14595.4,-7666.91 15530.5,-8382.18 16486.2,-8382.18 16486.2,-8382.18 16486.2,-8382.18 20600.2,-8382.18 23094.6,-8382.18 23586.7,-7174.18 26081.2,-7174.18 26081.2,-7174.18 26081.2,-7174.18 35677.2,-7174.18 36471.8,-7174.18 37383.6,-7013.72 37929.1,-6900.25"/>
<polygon fill="black" stroke="black" stroke-width="15" points="37932,-6913.06 37939.1,-6898.17 37926.6,-6887.36 37932,-6913.06"/>
<text text-anchor="middle" x="26082.2" y="-7177.98" font-family="Times,serif" font-size="14.00">644</text>
</g>
<!-- Repair (Simple)_Test Repair&#45;&gt;Test Repair_Restart Repair -->
<g id="edge17" class="edge"><title>Repair (Simple)_Test Repair&#45;&gt;Test Repair_Restart Repair</title>
<path fill="none" stroke="black" stroke-width="15" d="M14248.4,-6866.18C14747.9,-6866.18 15509.9,-6866.18 16003,-6866.18"/>
<polygon fill="black" stroke="black" stroke-width="15" points="16003.2,-6879.31 16013.2,-6866.18 16003.2,-6853.06 16003.2,-6879.31"/>
<text text-anchor="middle" x="15117.2" y="-6869.98" font-family="Times,serif" font-size="14.00">792</text>
</g>
<!-- Repair (Simple)_Test Repair&#45;&gt;END -->
<g id="edge18" class="edge"><title>Repair (Simple)_Test Repair&#45;&gt;END</title>
<path fill="none" stroke="black" stroke-width="15" d="M13880.8,-6382.5C14151.8,-5475 14842,-3494.95 16013.4,-2233.18 17913.4,-186.639 19176.6,-231.182 21969.2,-231.182 21969.2,-231.182 21969.2,-231.182 38418.2,-231.182 40838.2,-231.182 41135.3,-4794.35 41156.8,-5196.89"/>
<polygon fill="black" stroke="black" stroke-width="15" points="41143.7,-5197.8 41157.3,-5207.1 41169.9,-5196.43 41143.7,-5197.8"/>
<text text-anchor="middle" x="27452.2" y="-234.982" font-family="Times,serif" font-size="14.00">80</text>
</g>
<!-- Repair (Simple)_Test Repair&#45;&gt;Test Repair_Inform User -->
<g id="edge15" class="edge"><title>Repair (Simple)_Test Repair&#45;&gt;Test Repair_Inform User</title>
<path fill="none" stroke="black" stroke-width="15" d="M13993,-7303.45C14226.4,-7670.25 14614.3,-8169.46 15106.2,-8396.18 18343.2,-9888.38 22869.7,-9018.53 24276,-8690.65"/>
<polygon fill="black" stroke="black" stroke-width="15" points="24279,-8703.43 24285.8,-8688.38 24273.1,-8677.87 24279,-8703.43"/>
<text text-anchor="middle" x="19228.2" y="-9245.98" font-family="Times,serif" font-size="14.00">980</text>
</g>
<!-- Repair (Simple)_Inform User&#45;&gt;Inform User_Test Repair -->
<g id="edge22" class="edge"><title>Repair (Simple)_Inform User&#45;&gt;Inform User_Test Repair</title>
<path fill="none" stroke="black" stroke-width="15" d="M33369.4,-2541.46C33900.5,-2877.69 34792,-3442.07 35296.8,-3761.61"/>
<polygon fill="black" stroke="black" stroke-width="15" points="35289.8,-3772.74 35305.3,-3767 35303.8,-3750.57 35289.8,-3772.74"/>
<text text-anchor="middle" x="34306.2" y="-3137.98" font-family="Times,serif" font-size="14.00">644</text>
</g>
<!-- Inform User_Test Repair&#45;&gt;Test Repair_Archive Repair -->
<g id="edge8" class="edge"><title>Inform User_Test Repair&#45;&gt;Test Repair_Archive Repair</title>
<path fill="none" stroke="black" stroke-width="15" d="M35984.1,-4313.67C36497,-4835.99 37525.4,-5883.19 38065.9,-6433.54"/>
<polygon fill="black" stroke="black" stroke-width="15" points="38056.7,-6442.86 38073.1,-6440.8 38075.4,-6424.47 38056.7,-6442.86"/>
<text text-anchor="middle" x="37047.2" y="-5399.98" font-family="Times,serif" font-size="14.00">1508</text>
</g>
<!-- Inform User_Test Repair&#45;&gt;Test Repair_Restart Repair -->
<g id="edge9" class="edge"><title>Inform User_Test Repair&#45;&gt;Test Repair_Restart Repair</title>
<path fill="none" stroke="black" stroke-width="15" d="M35299.4,-4225.77C34784.8,-4511.45 33823.4,-4968.18 32936.2,-4968.18 23339.2,-4968.18 23339.2,-4968.18 23339.2,-4968.18 22899.8,-4968.18 20259.1,-6688.17 19833.5,-6797.18 18840.1,-7051.63 17626,-6987.97 16968,-6923.93"/>
<polygon fill="black" stroke="black" stroke-width="15" points="16969.1,-6910.85 16957.9,-6922.94 16966.5,-6936.97 16969.1,-6910.85"/>
<text text-anchor="middle" x="26082.2" y="-4971.98" font-family="Times,serif" font-size="14.00">244</text>
</g>
<!-- Inform User_Test Repair&#45;&gt;END -->
<g id="edge10" class="edge"><title>Inform User_Test Repair&#45;&gt;END</title>
<path fill="none" stroke="black" stroke-width="15" d="M36104.1,-4096.53C37318.6,-4367.74 40730.5,-5129.67 41121.5,-5217"/>
<polygon fill="black" stroke="black" stroke-width="15" points="41118.8,-5229.84 41131.5,-5219.22 41124.6,-5204.23 41118.8,-5229.84"/>
<text text-anchor="middle" x="38417.2" y="-4718.98" font-family="Times,serif" font-size="14.00">144</text>
</g>
<!-- Test Repair_Archive Repair&#45;&gt;END -->
<g id="edge32" class="edge"><title>Test Repair_Archive Repair&#45;&gt;END</title>
<path fill="none" stroke="black" stroke-width="15" d="M38843.3,-6547.37C39549.8,-6143.84 40910,-5366.96 41128.3,-5242.26"/>
<polygon fill="black" stroke="black" stroke-width="15" points="41135.1,-5253.49 41137.3,-5237.13 41122.1,-5230.69 41135.1,-5253.49"/>
<text text-anchor="middle" x="39788.2" y="-6011.98" font-family="Times,serif" font-size="14.00">2700</text>
</g>
<!-- Test Repair_Restart Repair&#45;&gt;Restart Repair_Repair (Complex) -->
<g id="edge34" class="edge"><title>Test Repair_Restart Repair&#45;&gt;Restart Repair_Repair (Complex)</title>
<path fill="none" stroke="black" stroke-width="15" d="M16947.8,-6755.1C17416,-6641.93 18143.4,-6466.12 18650.2,-6343.64"/>
<polygon fill="black" stroke="black" stroke-width="15" points="18653.6,-6356.32 18660.2,-6341.21 18647.4,-6330.81 18653.6,-6356.32"/>
<text text-anchor="middle" x="17858.2" y="-6538.98" font-family="Times,serif" font-size="14.00">332</text>
</g>
<!-- Test Repair_Restart Repair&#45;&gt;Restart Repair_Inform User -->
<g id="edge35" class="edge"><title>Test Repair_Restart Repair&#45;&gt;Restart Repair_Inform User</title>
<path fill="none" stroke="black" stroke-width="15" d="M16794.7,-7226.57C17317.2,-7840.73 18374.9,-9084.22 18906.7,-9709.39"/>
<polygon fill="black" stroke="black" stroke-width="15" points="18896.8,-9718.06 18913.3,-9717.17 18916.8,-9701.05 18896.8,-9718.06"/>
<text text-anchor="middle" x="17858.2" y="-8479.98" font-family="Times,serif" font-size="14.00">4</text>
</g>
<!-- Test Repair_Restart Repair&#45;&gt;Restart Repair_Repair (Simple) -->
<g id="edge36" class="edge"><title>Test Repair_Restart Repair&#45;&gt;Restart Repair_Repair (Simple)</title>
<path fill="none" stroke="black" stroke-width="15" d="M16588,-6403.18C16810.1,-5465.51 17422.6,-3314.89 18622.9,-1943.18 20053.4,-308.373 21166.9,-660.182 23339.2,-660.182 23339.2,-660.182 23339.2,-660.182 27453.2,-660.182 28402.1,-660.182 29313.2,-1386.13 29808.7,-1862.18"/>
<polygon fill="black" stroke="black" stroke-width="15" points="29799.6,-1871.7 29815.9,-1869.17 29817.8,-1852.78 29799.6,-1871.7"/>
<text text-anchor="middle" x="23340.2" y="-663.982" font-family="Times,serif" font-size="14.00">840</text>
</g>
<!-- Analyze Defect_Repair (Simple) -->
<g id="node15" class="node"><title>Analyze Defect_Repair (Simple)</title>
<ellipse fill="lightgrey" stroke="black" stroke-width="10" cx="11005.2" cy="-3415.18" rx="569.856" ry="569.856"/>
<text text-anchor="middle" x="11005.2" y="-3400.18" font-family="Times,serif" font-size="60.00">Analyze Defect_Repair (Simple)</text>
</g>
<!-- Analyze Defect_Repair (Simple)&#45;&gt;Repair (Simple)_Test Repair -->
<g id="edge12" class="edge"><title>Analyze Defect_Repair (Simple)&#45;&gt;Repair (Simple)_Test Repair</title>
<path fill="none" stroke="black" stroke-width="15" d="M11360.4,-3861.48C11898,-4538.79 12911.6,-5815.92 13427,-6465.25"/>
<polygon fill="black" stroke="black" stroke-width="15" points="13416.9,-6473.67 13433.4,-6473.34 13437.5,-6457.35 13416.9,-6473.67"/>
<text text-anchor="middle" x="12375.2" y="-5753.98" font-family="Times,serif" font-size="14.00">1236</text>
</g>
<!-- Analyze Defect_Repair (Simple)&#45;&gt;Repair (Simple)_Inform User -->
<g id="edge13" class="edge"><title>Analyze Defect_Repair (Simple)&#45;&gt;Repair (Simple)_Inform User</title>
<path fill="none" stroke="black" stroke-width="15" d="M11406.9,-3010.71C12092.7,-2349.85 13567,-1061.9 15106.2,-559.182 18585.4,577.175 19679.1,-370.182 23339.2,-370.182 23339.2,-370.182 23339.2,-370.182 28824.2,-370.182 29678.5,-370.182 29946.8,-177.002 30742.9,-487.182 31500.5,-782.392 32196.4,-1442.5 32592.5,-1870.6"/>
<polygon fill="black" stroke="black" stroke-width="15" points="32583,-1879.71 32599.4,-1878.15 32602.3,-1861.89 32583,-1879.71"/>
<text text-anchor="middle" x="21970.2" y="-357.982" font-family="Times,serif" font-size="14.00">448</text>
</g>
<!-- START_Register -->
<g id="node16" class="node"><title>START_Register</title>
<ellipse fill="lightgrey" stroke="black" stroke-width="10" cx="2781.18" cy="-3415.18" rx="308.097" ry="308.097"/>
<text text-anchor="middle" x="2781.18" y="-3400.18" font-family="Times,serif" font-size="60.00">START_Register</text>
</g>
<!-- Register_Analyze Defect -->
<g id="node17" class="node"><title>Register_Analyze Defect</title>
<ellipse fill="lightgrey" stroke="black" stroke-width="10" cx="5522.18" cy="-3415.18" rx="439.227" ry="439.227"/>
<text text-anchor="middle" x="5522.18" y="-3400.18" font-family="Times,serif" font-size="60.00">Register_Analyze Defect</text>
</g>
<!-- START_Register&#45;&gt;Register_Analyze Defect -->
<g id="edge14" class="edge"><title>START_Register&#45;&gt;Register_Analyze Defect</title>
<path fill="none" stroke="black" stroke-width="15" d="M3089.73,-3415.18C3573.27,-3415.18 4513.67,-3415.18 5072.64,-3415.18"/>
<polygon fill="black" stroke="black" stroke-width="15" points="5072.89,-3428.31 5082.89,-3415.18 5072.89,-3402.06 5072.89,-3428.31"/>
<text text-anchor="middle" x="4151.18" y="-3418.98" font-family="Times,serif" font-size="14.00">4416</text>
</g>
<!-- Register_Analyze Defect&#45;&gt;Analyze Defect_Inform User -->
<g id="edge39" class="edge"><title>Register_Analyze Defect&#45;&gt;Analyze Defect_Inform User</title>
<path fill="none" stroke="black" stroke-width="15" d="M5741.4,-3795.77C6241.74,-4668.4 7469.67,-6809.98 8005.31,-7744.19"/>
<polygon fill="black" stroke="black" stroke-width="15" points="7994.05,-7750.93 8010.41,-7753.07 8016.82,-7737.87 7994.05,-7750.93"/>
<text text-anchor="middle" x="6893.18" y="-5807.98" font-family="Times,serif" font-size="14.00">620</text>
</g>
<!-- Register_Analyze Defect&#45;&gt;Analyze Defect_Repair (Simple) -->
<g id="edge40" class="edge"><title>Register_Analyze Defect&#45;&gt;Analyze Defect_Repair (Simple)</title>
<path fill="none" stroke="black" stroke-width="15" d="M5961.3,-3415.18C6943.67,-3415.18 9322.46,-3415.18 10425.1,-3415.18"/>
<polygon fill="black" stroke="black" stroke-width="15" points="10425.2,-3428.31 10435.2,-3415.18 10425.2,-3402.06 10425.2,-3428.31"/>
<text text-anchor="middle" x="8263.18" y="-3418.98" font-family="Times,serif" font-size="14.00">1684</text>
</g>
<!-- Analyze Defect_Repair (Complex) -->
<g id="node21" class="node"><title>Analyze Defect_Repair (Complex)</title>
<ellipse fill="lightgrey" stroke="black" stroke-width="10" cx="19228.2" cy="-2557.18" rx="605.067" ry="605.067"/>
<text text-anchor="middle" x="19228.2" y="-2542.18" font-family="Times,serif" font-size="60.00">Analyze Defect_Repair (Complex)</text>
</g>
<!-- Register_Analyze Defect&#45;&gt;Analyze Defect_Repair (Complex) -->
<g id="edge41" class="edge"><title>Register_Analyze Defect&#45;&gt;Analyze Defect_Repair (Complex)</title>
<path fill="none" stroke="black" stroke-width="15" d="M5677.85,-3004.41C6013.44,-2192.07 6890.43,-458.182 8262.18,-458.182 8262.18,-458.182 8262.18,-458.182 15118.2,-458.182 16584.2,-458.182 18054,-1530.85 18773,-2142.55"/>
<polygon fill="black" stroke="black" stroke-width="15" points="18764.6,-2152.56 18780.7,-2149.05 18781.6,-2132.57 18764.6,-2152.56"/>
<text text-anchor="middle" x="12375.2" y="-461.982" font-family="Times,serif" font-size="14.00">2112</text>
</g>
<!-- Test Repair_Inform User&#45;&gt;END -->
<g id="edge21" class="edge"><title>Test Repair_Inform User&#45;&gt;END</title>
<path fill="none" stroke="black" stroke-width="15" d="M25145.9,-8523.95C25685.2,-8456.69 26634.4,-8355.18 27451.2,-8355.18 27451.2,-8355.18 27451.2,-8355.18 38418.2,-8355.18 40165.1,-8355.18 41057,-5560.9 41150,-5252.69"/>
<polygon fill="black" stroke="black" stroke-width="15" points="41162.7,-5256.14 41153,-5242.79 41137.6,-5248.59 41162.7,-5256.14"/>
<text text-anchor="middle" x="32935.2" y="-8358.98" font-family="Times,serif" font-size="14.00">140</text>
</g>
<!-- Inform User_Archive Repair -->
<g id="node19" class="node"><title>Inform User_Archive Repair</title>
<ellipse fill="lightgrey" stroke="black" stroke-width="10" cx="28823.2" cy="-9917.18" rx="502.092" ry="502.092"/>
<text text-anchor="middle" x="28823.2" y="-9902.18" font-family="Times,serif" font-size="60.00">Inform User_Archive Repair</text>
</g>
<!-- Test Repair_Inform User&#45;&gt;Inform User_Archive Repair -->
<g id="edge19" class="edge"><title>Test Repair_Inform User&#45;&gt;Inform User_Archive Repair</title>
<path fill="none" stroke="black" stroke-width="15" d="M25128.4,-8717.38C25893.8,-8965.99 27520.7,-9494.43 28335.6,-9759.15"/>
<polygon fill="black" stroke="black" stroke-width="15" points="28331.6,-9771.64 28345.2,-9762.25 28339.7,-9746.68 28331.6,-9771.64"/>
<text text-anchor="middle" x="26082.2" y="-9028.98" font-family="Times,serif" font-size="14.00">1300</text>
</g>
<!-- Inform User_Restart Repair -->
<g id="node20" class="node"><title>Inform User_Restart Repair</title>
<ellipse fill="lightgrey" stroke="black" stroke-width="10" cx="27452.2" cy="-2325.18" rx="485.151" ry="485.151"/>
<text text-anchor="middle" x="27452.2" y="-2310.18" font-family="Times,serif" font-size="60.00">Inform User_Restart Repair</text>
</g>
<!-- Test Repair_Inform User&#45;&gt;Inform User_Restart Repair -->
<g id="edge20" class="edge"><title>Test Repair_Inform User&#45;&gt;Inform User_Restart Repair</title>
<path fill="none" stroke="black" stroke-width="15" d="M24887.9,-8180.66C25374.9,-7068.21 26739.4,-3951.27 27252.6,-2778.8"/>
<polygon fill="black" stroke="black" stroke-width="15" points="27264.8,-2783.8 27256.7,-2769.37 27240.7,-2773.27 27264.8,-2783.8"/>
<text text-anchor="middle" x="26082.2" y="-5457.98" font-family="Times,serif" font-size="14.00">448</text>
</g>
<!-- Inform User_Archive Repair&#45;&gt;END -->
<g id="edge33" class="edge"><title>Inform User_Archive Repair&#45;&gt;END</title>
<path fill="none" stroke="black" stroke-width="15" d="M29285,-9719.52C29821.7,-9507.59 30740.1,-9201.18 31563.2,-9201.18 31563.2,-9201.18 31563.2,-9201.18 38418.2,-9201.18 40458.2,-9201.18 41095.7,-5608.3 41153.7,-5253.33"/>
<polygon fill="black" stroke="black" stroke-width="15" points="41166.7,-5255.32 41155.3,-5243.35 41140.8,-5251.12 41166.7,-5255.32"/>
<text text-anchor="middle" x="34306.2" y="-9204.98" font-family="Times,serif" font-size="14.00">1300</text>
</g>
<!-- Inform User_Restart Repair&#45;&gt;Restart Repair_Repair (Complex) -->
<g id="edge37" class="edge"><title>Inform User_Restart Repair&#45;&gt;Restart Repair_Repair (Complex)</title>
<path fill="none" stroke="black" stroke-width="15" d="M26984.4,-2196.38C25763.1,-1890.27 22439.5,-1260.45 20584.7,-2887.18 19772.9,-3599.09 19438.8,-4870.28 19307.8,-5615.21"/>
<polygon fill="black" stroke="black" stroke-width="15" points="19294.8,-5613.2 19306,-5625.32 19320.7,-5617.73 19294.8,-5613.2"/>
<text text-anchor="middle" x="23340.2" y="-1853.98" font-family="Times,serif" font-size="14.00">88</text>
</g>
<!-- Inform User_Restart Repair&#45;&gt;Restart Repair_Repair (Simple) -->
<g id="edge38" class="edge"><title>Inform User_Restart Repair&#45;&gt;Restart Repair_Repair (Simple)</title>
<path fill="none" stroke="black" stroke-width="15" d="M27937.5,-2314.93C28412.5,-2304.87 29136.2,-2289.56 29635.1,-2279"/>
<polygon fill="black" stroke="black" stroke-width="15" points="29635.7,-2292.11 29645.4,-2278.78 29635.1,-2265.87 29635.7,-2292.11"/>
<text text-anchor="middle" x="28823.2" y="-2310.98" font-family="Times,serif" font-size="14.00">360</text>
</g>
<!-- Analyze Defect_Repair (Complex)&#45;&gt;Repair (Complex)_Inform User -->
<g id="edge24" class="edge"><title>Analyze Defect_Repair (Complex)&#45;&gt;Repair (Complex)_Inform User</title>
<path fill="none" stroke="black" stroke-width="15" d="M19816.6,-2700.38C20294,-2816.78 20962.3,-2979.7 21427.1,-3093.02"/>
<polygon fill="black" stroke="black" stroke-width="15" points="21424.2,-3105.82 21437,-3095.44 21430.4,-3080.32 21424.2,-3105.82"/>
<text text-anchor="middle" x="20599.2" y="-2894.98" font-family="Times,serif" font-size="14.00">1156</text>
</g>
<!-- Analyze Defect_Repair (Complex)&#45;&gt;Repair (Complex)_Test Repair -->
<g id="edge25" class="edge"><title>Analyze Defect_Repair (Complex)&#45;&gt;Repair (Complex)_Test Repair</title>
<path fill="none" stroke="black" stroke-width="15" d="M19564.3,-3060.84C20102,-3868.94 21149.3,-5442.93 21666,-6219.48"/>
<polygon fill="black" stroke="black" stroke-width="15" points="21655.2,-6226.96 21671.6,-6228.01 21677,-6212.42 21655.2,-6226.96"/>
<text text-anchor="middle" x="20599.2" y="-4619.98" font-family="Times,serif" font-size="14.00">948</text>
</g>
<!-- Analyze Defect_Repair (Complex)&#45;&gt;END -->
<g id="edge26" class="edge"><title>Analyze Defect_Repair (Complex)&#45;&gt;END</title>
<path fill="none" stroke="black" stroke-width="15" d="M19617.9,-2093.93C20107.2,-1565.93 21001.5,-775.182 21969.2,-775.182 21969.2,-775.182 21969.2,-775.182 26083.2,-775.182 27913.7,-775.182 28362.7,-509.182 30193.2,-509.182 30193.2,-509.182 30193.2,-509.182 38418.2,-509.182 40732.4,-509.182 41125.2,-4807.5 41156.1,-5197.01"/>
<polygon fill="black" stroke="black" stroke-width="15" points="41143,-5198.21 41156.9,-5207.16 41169.2,-5196.17 41143,-5198.21"/>
<text text-anchor="middle" x="30194.2" y="-520.982" font-family="Times,serif" font-size="14.00">8</text>
</g>
<!-- START -->
<g id="node22" class="node"><title>START</title>
<ellipse fill="none" stroke="black" cx="39.1817" cy="-3415.18" rx="39.7935" ry="18"/>
<text text-anchor="middle" x="39.1817" y="-3411.48" font-family="Times,serif" font-size="14.00">START</text>
</g>
<!-- START&#45;&gt;START_Register -->
<g id="edge42" class="edge"><title>START&#45;&gt;START_Register</title>
<path fill="none" stroke="black" stroke-width="15" d="M78.9152,-3415.18C335.984,-3415.18 1805.69,-3415.18 2462.79,-3415.18"/>
<polygon fill="black" stroke="black" stroke-width="15" points="2462.88,-3428.31 2472.88,-3415.18 2462.88,-3402.06 2462.88,-3428.31"/>
<text text-anchor="middle" x="1410.18" y="-3418.98" font-family="Times,serif" font-size="14.00">4416</text>
</g>
</g>
</svg>
